<svg width="100" height="114" viewBox="0 0 100 114" fill="none" xmlns="http://www.w3.org/2000/svg">
<path id="Union" fill-rule="evenodd" clip-rule="evenodd" d="M18.7951 40.0872L49.9223 7.21286L81.0495 40.0872L81.0579 40.096C86.0177 45.252 89.6644 49.6517 91.73 54.3479C93.735 58.9062 94.3297 63.9382 92.7402 70.5231C92.7072 70.6598 92.6838 70.7966 92.6696 70.9327C91.8807 73.7089 90.5596 76.31 88.7734 78.5978C86.9178 80.9746 84.595 82.9685 81.9347 84.463C79.2742 85.9576 76.3283 86.9232 73.2644 87.3009C70.2004 87.6786 67.0808 87.4606 64.0847 86.6578C61.0887 85.855 58.278 84.484 55.8133 82.6249C55.1971 82.1601 54.6056 81.6671 54.0407 81.1481C54.541 80.4511 55.0112 79.7321 55.4497 78.9928C57.4214 75.6687 58.7129 71.9994 59.2465 68.1935C59.7801 64.3874 59.5448 60.5216 58.5525 56.8179C58.1096 55.1653 56.411 54.1846 54.7584 54.6274C53.1058 55.0702 52.1251 56.7689 52.5679 58.4215C53.3444 61.3194 53.5295 64.3473 53.1109 67.3333C52.6922 70.3194 51.6776 73.2077 50.1209 75.8321C50.0556 75.9422 49.9894 76.0518 49.9223 76.1608C49.8552 76.0518 49.7889 75.9422 49.7236 75.8321C48.1669 73.2077 47.1523 70.3194 46.7337 67.3333C46.3151 64.3473 46.5001 61.3194 47.2766 58.4215C47.7194 56.7689 46.7387 55.0702 45.0861 54.6274C43.4335 54.1846 41.7349 55.1653 41.2921 56.8179C40.2997 60.5216 40.0644 64.3874 40.598 68.1935C41.1316 71.9994 42.4231 75.6687 44.3948 78.9928C44.8333 79.7321 45.3036 80.4511 45.8039 81.1481C45.239 81.6671 44.6475 82.1601 44.0312 82.6249C41.5666 84.484 38.7559 85.855 35.7598 86.6578C32.7637 87.4606 29.6441 87.6786 26.5801 87.3009C23.5162 86.9232 20.5704 85.9576 17.9099 84.463C15.2495 82.9685 12.9268 80.9746 11.0711 78.5978C9.28491 76.31 7.96381 73.7089 7.1749 70.9327C7.16072 70.7966 7.13734 70.6598 7.10435 70.5231C5.51488 63.9382 6.1095 58.9062 8.11452 54.3479C10.1802 49.6517 13.8268 45.252 18.7866 40.096L18.7951 40.0872ZM98.7437 72.212C98.7939 72.0246 98.8258 71.8366 98.8405 71.6499C100.625 64.0076 99.962 57.6751 97.4013 51.8533C94.8662 46.0899 90.551 41.0282 85.5316 35.8096L52.5415 0.967929C51.8409 0.227943 50.8619 -0.0902676 49.9223 0.0219676C48.9826 -0.0902676 48.0036 0.227943 47.303 0.967929L14.3129 35.8096C9.29356 41.0282 4.97838 46.0899 2.44326 51.8533C-0.117503 57.6751 -0.779971 64.0076 1.00405 71.65C1.01875 71.8367 1.05066 72.0246 1.10087 72.212C2.09326 75.9157 3.82242 79.3812 6.18757 82.4106C8.55261 85.4398 11.5058 87.9717 14.8754 89.8647C18.2448 91.7575 21.9648 92.9745 25.8221 93.45C29.6793 93.9255 33.6007 93.6505 37.3634 92.6423C40.626 91.7681 43.7163 90.3568 46.5028 88.4713L35.3985 109.453C34.8904 110.413 34.9223 111.569 35.4827 112.5C36.0432 113.431 37.0502 114 38.1366 114H61.7452C62.8315 114 63.8385 113.431 64.399 112.5C64.9594 111.569 64.9913 110.413 64.4832 109.453L53.3995 88.5104C56.171 90.3763 59.2411 91.7742 62.4812 92.6423C66.2439 93.6505 70.1652 93.9255 74.0224 93.45C77.8797 92.9745 81.5997 91.7575 84.9692 89.8647C88.3388 87.9717 91.2919 85.4398 93.657 82.4106C96.0221 79.3812 97.7513 75.9157 98.7437 72.212ZM56.6007 107.804H43.281L49.9409 95.2203L56.6007 107.804Z" fill="black"/>
</svg>
